<svg xmlns="http://www.w3.org/2000/svg" viewBox="0 0 24 24" width="100" height="100">
  <path d="M13.13 22.19L11.5 18.36C13.07 17.78 14.54 17 15.9 16.09L13.13 22.19M5.64 12.5L1.81 10.87L7.91 8.1C7 9.46 6.22 10.93 5.64 12.5M21.61 2.39C21.61 2.39 16.66 .269 11 5.93C8.81 8.12 7.5 10.53 6.65 12.64C6.37 13.39 6.56 14.21 7.11 14.77L9.24 16.89C9.79 17.45 10.61 17.63 11.36 17.35C13.5 16.53 15.88 15.19 18.07 13C23.73 7.34 21.61 2.39 21.61 2.39M14.54 9.46C13.76 8.68 13.76 7.41 14.54 6.63S16.59 5.85 17.37 6.63C18.14 7.41 18.15 8.68 17.37 9.46C16.59 10.24 15.32 10.24 14.54 9.46M8.88 16.53L7.47 15.12L8.88 16.53Z" 
    fill="#00ffaa">
    <!-- Add rocket trail animation -->
    <animate attributeName="opacity" values="0.7;1;0.7" dur="1.5s" repeatCount="indefinite" />
  </path>
  
  <!-- Add flame animation -->
  <path d="M7.5 16.5L4.5 19.5L6 21C7.5 18 8.5 16.5 7.5 16.5Z" fill="#ff6b6b" opacity="0.8">
    <animate attributeName="opacity" values="0.4;0.8;0.4" dur="0.5s" repeatCount="indefinite" />
    <animate attributeName="d" 
      values="M7.5 16.5L4.5 19.5L6 21C7.5 18 8.5 16.5 7.5 16.5Z;
              M7.5 16.5L4 20L6 21.5C7.5 18.5 8.5 16.5 7.5 16.5Z;
              M7.5 16.5L4.5 19.5L6 21C7.5 18 8.5 16.5 7.5 16.5Z" 
      dur="0.8s" 
      repeatCount="indefinite" />
  </path>
  
  <!-- Add stars for decoration -->
  <circle cx="3" cy="5" r="0.3" fill="white">
    <animate attributeName="opacity" values="0.2;1;0.2" dur="2s" repeatCount="indefinite" />
  </circle>
  <circle cx="18" cy="4" r="0.2" fill="white">
    <animate attributeName="opacity" values="0.3;0.8;0.3" dur="2.5s" repeatCount="indefinite" />
  </circle>
  <circle cx="20" cy="10" r="0.2" fill="white">
    <animate attributeName="opacity" values="0.2;0.9;0.2" dur="1.8s" repeatCount="indefinite" />
  </circle>
  <circle cx="4" cy="12" r="0.3" fill="white">
    <animate attributeName="opacity" values="0.4;1;0.4" dur="3s" repeatCount="indefinite" />
  </circle>
</svg>
